<?xml version="1.0" standalone="no"?>
<!DOCTYPE svg PUBLIC "-//W3C//DTD SVG 20010904//EN"
 "http://www.w3.org/TR/2001/REC-SVG-20010904/DTD/svg10.dtd">
<svg version="1.0" xmlns="http://www.w3.org/2000/svg"
 width="70.000000pt" height="70.000000pt" viewBox="0 0 70.000000 70.000000"
 preserveAspectRatio="xMidYMid meet">
<metadata>
Created by potrace 1.11, written by Peter Selinger 2001-2013
</metadata>
<g transform="translate(0.000000,70.000000) scale(0.100000,-0.100000)"
fill="#000000" stroke="none">
<path d="M363 670 c-46 -26 -102 -85 -107 -113 -2 -7 -9 -25 -16 -42 -11 -27
-16 -139 -8 -175 19 -77 110 -190 154 -190 11 0 24 -3 28 -7 10 -11 96 -11 96
-1 0 4 11 8 24 8 16 0 43 18 76 49 28 27 51 52 51 55 -1 4 5 19 12 34 8 15 13
37 12 49 -1 12 3 19 8 16 7 -4 8 23 5 74 -12 162 -99 263 -234 269 -41 2 -62
-4 -101 -26z"/>
<path d="M88 259 c-10 -5 -18 -7 -18 -3 0 14 -40 -30 -55 -59 -40 -81 15 -197
94 -197 120 0 157 200 45 253 -40 20 -43 20 -66 6z"/>
</g>
</svg>
